HIERARCHY
ROOT Hips
{
	OFFSET	0.00	0.00	0.00
	CHANNELS 6 Xposition Yposition Zposition Zrotation Xrotation Yrotation
	JOINT LeftUpLeg
	{
		OFFSET	 0.126116	-0.014019	-0.065224
		CHANNELS 3 Zrotation Xrotation Yrotation
		JOINT LeftLeg
		{
			OFFSET	 0.000000	 0.000000	 0.569914
			CHANNELS 3 Zrotation Xrotation Yrotation
			JOINT LeftFoot
			{
				OFFSET	 0.000000	 0.000000	 0.544423
				CHANNELS 3 Zrotation Xrotation Yrotation
				JOINT LeftToeBase
				{
					OFFSET	 0.000000	 0.000000	 0.207117
					CHANNELS 3 Zrotation Xrotation Yrotation
					End Site
					{
						OFFSET	 0.000000	 0.000000	 0.207117
					}
				}
			}
		}
	}
	JOINT RightUpLeg
	{
		OFFSET	-0.124023	-0.008373	-0.065224
		CHANNELS 3 Zrotation Xrotation Yrotation
		JOINT RightLeg
		{
			OFFSET	 0.000000	 0.000000	 0.570047
			CHANNELS 3 Zrotation Xrotation Yrotation
			JOINT RightFoot
			{
				OFFSET	 0.000000	 0.000000	 0.544354
				CHANNELS 3 Zrotation Xrotation Yrotation
				JOINT RightToeBase
				{
					OFFSET	 0.000000	 0.000000	 0.207540
					CHANNELS 3 Zrotation Xrotation Yrotation
					End Site
					{
						OFFSET	 0.000000	 0.000000	 0.207540
					}
				}
			}
		}
	}
	JOINT Spine
	{
		OFFSET	 0.000184	-0.007763	 0.117403
		CHANNELS 3 Zrotation Xrotation Yrotation
		JOINT Spine1
		{
			OFFSET	 0.000000	 0.000000	 0.137269
			CHANNELS 3 Zrotation Xrotation Yrotation
			JOINT Spine2
			{
				OFFSET	 0.000000	 0.000000	 0.156879
				CHANNELS 3 Zrotation Xrotation Yrotation
				JOINT LeftShoulder
				{
					OFFSET	 0.080501	-0.002496	 0.160144
					CHANNELS 3 Zrotation Xrotation Yrotation
					JOINT LeftArm
					{
						OFFSET	 0.000000	 0.000000	 0.164363
						CHANNELS 3 Zrotation Xrotation Yrotation
						JOINT LeftForeArm
						{
							OFFSET	 0.000000	 0.000000	 0.364576
							CHANNELS 3 Zrotation Xrotation Yrotation
							JOINT LeftHand
							{
								OFFSET	 0.000000	 0.000000	 0.360812
								CHANNELS 3 Zrotation Xrotation Yrotation
								JOINT LeftHandIndex1
								{
									OFFSET	 0.000000	 0.000000	 0.086006
									CHANNELS 3 Zrotation Xrotation Yrotation
									JOINT LeftHandIndex2
									{
										OFFSET	 0.000000	 0.000000	 0.047237
										CHANNELS 3 Zrotation Xrotation Yrotation
										JOINT LeftHandIndex3
										{
											OFFSET	-0.004284	-0.000551	 0.038165
											CHANNELS 3 Zrotation Xrotation Yrotation
											End Site
											{
												OFFSET	-0.004284	-0.000551	 0.038165
											}
										}
									}
								}
							}
						}
					}
				}
				JOINT Neck
				{
					OFFSET	 0.000000	 0.000000	 0.176489
					CHANNELS 3 Zrotation Xrotation Yrotation
					JOINT Head
					{
						OFFSET	 0.000000	-0.001747	 0.077940
						CHANNELS 3 Zrotation Xrotation Yrotation
						End Site
						{
							OFFSET	 0.000000	-0.001747	 0.077940
						}
					}
				}
				JOINT RightShoulder
				{
					OFFSET	-0.080363	 0.000306	 0.159706
					CHANNELS 3 Zrotation Xrotation Yrotation
					JOINT RightArm
					{
						OFFSET	 0.000000	 0.000000	 0.164196
						CHANNELS 3 Zrotation Xrotation Yrotation
						JOINT RightForeArm
						{
							OFFSET	 0.000000	 0.000000	 0.365611
							CHANNELS 3 Zrotation Xrotation Yrotation
							JOINT RightHand
							{
								OFFSET	 0.000000	 0.000000	 0.360648
								CHANNELS 3 Zrotation Xrotation Yrotation
								JOINT RightHandIndex1
								{
									OFFSET	 0.000000	 0.000000	 0.069977
									CHANNELS 3 Zrotation Xrotation Yrotation
									JOINT RightHandIndex2
									{
										OFFSET	 0.000000	 0.000000	 0.052305
										CHANNELS 3 Zrotation Xrotation Yrotation
										JOINT RightHandIndex3
										{
											OFFSET	 0.009002	-0.000782	 0.042196
											CHANNELS 3 Zrotation Xrotation Yrotation
											End Site
											{
												OFFSET	 0.009002	-0.000782	 0.042196
											}
										}
									}
								}
							}
						}
					}
				}
			}
		}
	}
}
MOTION
Frames:    4
Frame Time: 0.03333334
-0.714787	-1.652642	 1.273571	-176.439500	 6.217209	-2.357956	-3.370536	-9.445814	 179.935700	 0.328274	-16.437120	 0.645584	-23.091250	 55.623950	 13.174580	-2.385833	 28.452760	 0.000004	 0.537723	-12.911610	-176.890600	-6.085231	-19.605550	 1.619049	 9.491123	 85.236630	 1.352858	 2.384659	 28.388700	-0.000001	-2.738242	 7.761132	 3.200289	-2.044559	-15.136960	-14.609710	-2.123370	-3.056940	 17.773560	-91.776180	 78.527360	 180.000000	-33.287700	 8.208689	 6.279225	-10.689310	-7.511085	-59.922610	 6.511114	-11.582340	-4.139229	-4.131196	 21.524690	 0.986298	-5.167839	 0.733520	 3.519257	-1.378229	 35.397820	-2.634230	 1.428563	 7.998258	 1.105396	-16.186320	-8.995949	-5.356521	 89.782160	 78.203870	 179.999900	 11.072340	 12.174320	-12.817400	 1.372615	-17.156230	 55.680800	-2.419040	 42.637470	 24.527940	 5.715225	 19.176060	-3.692089	 5.027514	 0.245388	-9.378011	-2.350882	 35.473990	 5.254307
-0.713379	-1.650496	 1.273102	-176.382400	 6.267444	-2.507921	-3.391517	-9.817704	 179.804700	 0.835258	-17.845050	 0.854787	-24.415560	 55.810380	 14.391210	-2.385833	 28.452760	 0.000004	 1.445678	-13.674460	-176.565700	-6.552852	-20.693200	 1.538803	 19.610320	 86.589000	-8.374401	 2.384659	 28.388700	-0.000001	-3.292833	 7.500950	 3.352559	-2.647234	-14.068080	-15.260770	-1.922124	-3.593759	 18.059550	-91.776270	 78.527400	-179.999900	-32.309120	 10.171290	 8.083323	-11.369730	-7.611550	-64.313910	 6.303826	-11.701410	-4.081053	-4.131196	 21.524690	 0.986298	-5.167839	 0.733520	 3.519257	-1.378229	 35.397820	-2.634230	 1.373913	 7.944255	 1.270540	-16.119170	-8.779316	-5.254281	 89.782130	 78.203900	 179.999900	 9.866863	 14.085530	-14.074220	 2.486259	-17.718150	 59.254280	-1.588551	 41.169360	 22.474330	 5.715225	 19.176060	-3.692089	 5.027514	 0.245388	-9.378011	-2.350882	 35.473990	 5.254307
-0.711401	-1.647235	 1.272487	-176.335400	 6.332701	-2.637184	-3.743086	-10.248670	 179.506700	 1.559957	-19.770100	 1.189270	-26.457080	 55.988580	 16.349650	-2.385833	 28.452760	 0.000004	 1.974714	-14.802320	-176.183300	-6.813439	-22.137230	 1.542284	 33.654990	 86.796370	-22.242700	 2.384659	 28.388700	-0.000001	-4.136977	 7.123541	 3.517676	-3.548543	-12.342390	-16.451960	-1.519908	-4.515913	 18.735850	-91.776120	 78.527400	 179.999900	-31.015370	 13.256360	 10.066510	-12.236690	-7.596749	-69.874510	 6.010413	-11.859650	-4.006488	-4.131196	 21.524690	 0.986298	-5.167839	 0.733520	 3.519257	-1.378229	 35.397820	-2.634230	 1.410981	 7.976736	 1.314698	-16.074120	-8.829967	-5.269781	 89.782130	 78.203890	 180.000000	 8.114800	 17.148340	-15.605890	 3.966635	-18.424260	 63.992820	-0.951489	 39.006400	 20.389950	 5.715225	 19.176060	-3.692089	 5.027514	 0.245388	-9.378011	-2.350882	 35.473990	 5.254307
-0.698758	-1.624629	 1.269178	-176.439700	 7.539862	-2.744903	-7.213921	-11.354220	 176.889700	 4.646778	-28.166800	 3.125691	-36.527270	 56.198400	 26.867150	-2.385833	 28.452760	 0.000004	 3.212950	-21.999830	-174.012500	-6.607800	-28.633090	 2.059950	 34.392690	 77.897090	-24.458330	 2.384659	 28.388700	-0.000001	-9.494308	 3.799673	 2.528089	-8.895029	 0.208766	-21.126230	 1.586076	-11.029620	 22.169440	-91.776160	 78.527400	 180.000000	-17.480860	 31.066800	 2.730938	-13.716840	-6.655851	-79.218440	 4.954061	-12.356580	-3.806706	-4.131196	 21.524690	 0.986298	-5.167839	 0.733520	 3.519257	-1.378229	 35.397820	-2.634230	 1.761014	 8.243695	 1.001223	-16.014950	-9.437032	-5.346341	 89.782120	 78.203920	 180.000000	-3.965056	 38.704850	-14.747520	 8.090960	-20.160160	 77.008260	-10.306800	 21.959360	 18.652280	 5.715225	 19.176060	-3.692089	 5.027514	 0.245388	-9.378011	-2.350882	 35.473990	 5.254307
